<?xml version="1.0" standalone="no"?>
<!DOCTYPE svg PUBLIC "-//W3C//DTD SVG 20010904//EN"
 "http://www.w3.org/TR/2001/REC-SVG-20010904/DTD/svg10.dtd">
<svg version="1.0" xmlns="http://www.w3.org/2000/svg"
 width="512.000000pt" height="512.000000pt" viewBox="0 0 512.000000 512.000000"
 preserveAspectRatio="xMidYMid meet">
<metadata>
Created by potrace 1.14, written by Peter Selinger 2001-2017
</metadata>
<g transform="translate(0.000000,512.000000) scale(0.100000,-0.100000)"
fill="#000000" stroke="none">
<path d="M2310 3667 c-63 -32 -62 -112 2 -155 87 -58 91 -65 85 -145 -5 -63
-140 -540 -332 -1174 -30 -98 -59 -134 -137 -174 -64 -32 -83 -62 -73 -111 13
-56 24 -58 313 -58 l263 0 24 25 c46 45 28 105 -45 146 -48 27 -61 60 -49 125
12 61 241 804 248 804 4 0 73 -143 155 -318 239 -507 352 -736 372 -754 11 -9
31 -19 45 -23 50 -12 77 29 295 455 113 223 231 452 262 509 l55 104 89 -359
c48 -197 92 -380 97 -406 10 -62 -2 -86 -60 -118 -70 -38 -79 -48 -79 -90 0
-100 -1 -100 425 -100 l357 0 29 29 c21 21 29 39 29 63 0 42 -25 70 -93 104
-62 31 -84 50 -102 85 -14 26 -302 1080 -332 1212 -20 90 -10 113 67 157 83
46 104 107 55 155 l-24 25 -320 0 c-185 0 -331 -4 -346 -10 -31 -12 -48 -53
-39 -93 4 -20 20 -37 52 -57 26 -15 57 -37 70 -49 45 -41 35 -69 -151 -447
-94 -193 -179 -362 -187 -374 -34 -49 -49 -28 -245 356 -107 208 -189 382
-192 404 -5 34 -2 40 33 66 72 55 94 81 94 112 0 90 -10 92 -377 92 -228 0
-314 -4 -333 -13z"/>
<path d="M466 3034 c-23 -22 -30 -62 -18 -89 6 -14 33 -35 59 -49 26 -13 60
-37 75 -53 16 -16 121 -228 243 -488 l216 -460 -16 -31 c-10 -18 -30 -48 -47
-68 -89 -108 -225 -89 -313 43 -48 72 -74 89 -110 73 -39 -18 -41 -54 -11
-202 30 -148 56 -213 99 -244 25 -18 43 -21 140 -21 101 0 117 3 167 27 66 32
143 96 192 158 67 86 118 188 318 639 111 250 212 470 225 490 36 56 78 97
139 136 79 50 97 94 56 135 -19 19 -33 20 -262 20 -134 0 -248 -4 -255 -8 -20
-13 -31 -55 -22 -82 5 -14 29 -38 54 -53 49 -32 61 -57 50 -113 -6 -37 -196
-474 -205 -474 -11 0 -211 441 -222 489 -13 58 -7 71 53 101 58 30 74 115 24
134 -9 3 -151 6 -315 6 -258 0 -301 -2 -314 -16z"/>
</g>
</svg>
