<?xml version="1.0" standalone="no"?>
<!DOCTYPE svg PUBLIC "-//W3C//DTD SVG 20010904//EN"
 "http://www.w3.org/TR/2001/REC-SVG-20010904/DTD/svg10.dtd">
<svg version="1.0" xmlns="http://www.w3.org/2000/svg"
 width="512.000000pt" height="512.000000pt" viewBox="0 0 512.000000 512.000000"
 preserveAspectRatio="xMidYMid meet">
<metadata>
Created by potrace 1.14, written by Peter Selinger 2001-2017
</metadata>
<g transform="translate(0.000000,512.000000) scale(0.100000,-0.100000)"
fill="#000000" stroke="none">
<path d="M2300 3673 c-41 -21 -60 -69 -42 -107 6 -13 37 -43 69 -68 l58 -44
-1 -75 c-2 -65 -24 -148 -177 -663 -96 -323 -183 -600 -194 -615 -11 -14 -49
-42 -84 -61 -93 -51 -113 -112 -51 -161 25 -19 37 -20 290 -17 264 3 264 3
283 27 10 13 19 39 19 57 0 37 -18 58 -80 98 -34 22 -35 23 -34 87 0 53 21
130 119 446 65 210 122 380 125 378 3 -2 114 -232 245 -511 155 -327 251 -519
271 -541 42 -45 82 -45 120 0 16 18 144 256 284 529 140 274 255 496 256 495
3 -3 175 -707 185 -755 12 -60 -2 -87 -60 -116 -27 -14 -57 -36 -65 -48 -24
-33 -20 -82 8 -115 l24 -28 353 -3 c371 -3 395 -1 424 42 19 27 19 76 0 103
-9 12 -47 39 -86 59 -53 28 -75 46 -89 74 -29 57 -340 1220 -340 1272 0 49 11
64 70 93 61 30 80 54 80 100 0 30 -6 47 -21 61 -20 18 -41 19 -354 19 -313 0
-334 -1 -354 -19 -23 -21 -28 -74 -11 -107 6 -10 32 -30 58 -43 112 -57 111
-59 -98 -488 -94 -194 -181 -362 -191 -373 -15 -15 -23 -17 -37 -9 -26 17
-392 746 -392 783 0 25 9 37 55 71 82 60 96 104 51 157 l-24 28 -314 3 c-283
2 -316 1 -348 -15z"/>
<path d="M462 3044 c-16 -11 -22 -25 -22 -53 0 -41 21 -66 80 -96 19 -10 46
-30 61 -46 14 -15 121 -233 239 -483 203 -435 212 -457 200 -486 -21 -50 -91
-117 -137 -130 -84 -25 -150 7 -223 110 -39 55 -51 65 -80 68 -68 7 -76 -49
-34 -236 43 -189 71 -225 191 -238 79 -8 159 7 233 44 73 37 175 141 232 239
26 44 138 284 249 534 111 250 217 477 235 506 29 46 123 133 143 133 5 0 20
11 35 25 18 17 26 34 26 59 0 63 -12 66 -286 66 -221 0 -242 -2 -257 -18 -17
-19 -22 -69 -9 -88 4 -6 29 -25 56 -43 l48 -34 -4 -51 c-3 -37 -30 -110 -97
-261 -51 -116 -96 -216 -100 -223 -5 -8 -50 77 -115 217 -127 271 -135 308
-76 348 62 42 70 52 70 86 0 67 -2 67 -336 67 -255 0 -303 -2 -322 -16z"/>
</g>
</svg>
