<?xml version="1.0" encoding="UTF-8" standalone="no"?>
<!DOCTYPE svg PUBLIC "-//W3C//DTD SVG 1.1//EN" "http://www.w3.org/Graphics/SVG/1.1/DTD/svg11.dtd">
<svg width="100%" height="100%" viewBox="0 0 26 26" version="1.1" xmlns="http://www.w3.org/2000/svg" xmlns:xlink="http://www.w3.org/1999/xlink" xml:space="preserve" xmlns:serif="http://www.serif.com/" style="fill-rule:evenodd;clip-rule:evenodd;stroke-linejoin:round;stroke-miterlimit:2;">
    <g transform="matrix(0.72215,0,0,0.644263,-182.355,-378.388)">
        <g transform="matrix(0.383858,-0.664862,0.664862,0.383858,203.155,623.305)">
            <text x="62.25px" y="66.739px" style="font-family:'WindsorEF-Bold', 'WindsorEF';font-weight:700;font-size:37.844px;fill:rgb(47,72,88);">o</text>
        </g>
        <g transform="matrix(1.20281e-16,-0.767716,1.04333,1.41622e-16,213.629,676.51)">
            <path d="M89.762,55.916C89.762,49.407 84.994,44.525 79.09,42.481C75.533,41.233 71.635,41.119 67.927,41.119C66.98,41.119 65.656,44.374 65.732,45.698C65.807,47.401 65.845,49.104 65.845,50.807L65.845,58.451C65.845,59.132 66.011,62.845 65.671,63.375C65.103,64.245 66.25,66.739 67.271,66.739L72.733,66.739C75.155,66.739 78.825,66.626 81.172,66.134C82.648,65.831 84.01,65.187 85.259,64.355C88.211,62.349 89.762,59.511 89.762,55.916ZM82.269,54.78C82.269,59.776 79.62,63.144 74.436,63.144C72.051,63.144 72.165,61.895 72.165,59.852C72.165,57.884 72.127,55.916 72.127,53.986C72.127,51.98 72.127,49.974 72.165,47.969C72.203,46.152 72.014,44.828 74.171,44.828C79.431,44.828 82.269,50.05 82.269,54.78Z" style="fill:rgb(47,72,88);fill-rule:nonzero;"/>
        </g>
    </g>
    <g transform="matrix(1.09624,0,0,1,-1.5739,0)">
        <circle cx="12.549" cy="6.54" r="3.806" style="fill:rgb(47,72,88);"/>
    </g>
    <g transform="matrix(2.23695,0,0,1,-15.5587,13.2527)">
        <circle cx="12.549" cy="6.54" r="3.806" style="fill:rgb(47,72,88);"/>
    </g>
</svg>
