<?xml version="1.0" encoding="UTF-8" standalone="no"?><!DOCTYPE svg PUBLIC "-//W3C//DTD SVG 1.1//EN" "http://www.w3.org/Graphics/SVG/1.1/DTD/svg11.dtd"><svg width="100%" height="100%" viewBox="0 0 87 87" version="1.1" xmlns="http://www.w3.org/2000/svg" xmlns:xlink="http://www.w3.org/1999/xlink" xml:space="preserve" xmlns:serif="http://www.serif.com/" style="fill-rule:evenodd;clip-rule:evenodd;stroke-linejoin:round;stroke-miterlimit:2;"><path d="M63.61,20.165c0,-11.129 -9.035,-20.165 -20.164,-20.165l-0.017,-0c-11.129,-0 -20.164,9.036 -20.164,20.165c-0,11.129 9.035,20.165 20.164,20.165l0.017,-0c11.129,-0 20.164,-9.036 20.164,-20.165Z" style="fill:#f8f8f8;"/><clipPath id="_clip1"><rect x="6.084" y="49.522" width="74.707" height="37.266"/></clipPath><g clip-path="url(#_clip1)"><path d="M80.791,86.876c0,-20.616 -16.737,-37.354 -37.354,-37.354c-20.616,0 -37.353,16.738 -37.353,37.354c-0,20.616 16.737,37.354 37.353,37.354c20.617,-0 37.354,-16.738 37.354,-37.354Z" style="fill:#f8f8f8;"/></g></svg>