<?xml version="1.0" encoding="UTF-8" standalone="no"?>
<!DOCTYPE svg PUBLIC "-//W3C//DTD SVG 1.1//EN" "http://www.w3.org/Graphics/SVG/1.1/DTD/svg11.dtd">
<svg width="100%" height="100%" viewBox="0 0 500 460" version="1.1" xmlns="http://www.w3.org/2000/svg" xmlns:xlink="http://www.w3.org/1999/xlink" xml:space="preserve" xmlns:serif="http://www.serif.com/" style="fill-rule:evenodd;clip-rule:evenodd;stroke-linejoin:round;stroke-miterlimit:10;">
    <g id="cbs_gemeenten_2009" transform="matrix(16.4746,0,0,16.4746,-3846.68,-2706.83)">
        <g id="wijk_2008_gen">
            <g>
                <path id="path8" d="M255.284,181.546L255.347,181.6L255.824,181.6L256.184,181.96L256.778,183.274L256.778,183.868L256.823,183.823L258.326,182.437L258.443,182.554L258.776,185.11L258.803,185.298L258.515,185.244L258.209,185.182L257.966,185.182L257.66,185.487L257.615,185.541L257.255,185.892L257.138,186.252L257.138,186.612L256.778,187.089L255.86,186.981L255.707,186.972L254.753,187.683L254.708,187.737L254.51,188.043L254.393,188.403L254.321,188.412L253.799,188.52L253.322,188.52L253.205,188.295L253.196,188.277L251.288,184.705L251.288,184.462L251.648,184.111L252.008,183.634L252.197,183.157L252.242,183.031L252.125,182.797L251.891,182.554L252.008,182.437L252.485,182.077L252.62,182.014L252.719,181.96L253.196,182.68L253.502,182.473L253.556,182.437L254.375,181.969L254.393,181.96L255.185,181.51L255.23,181.483L255.284,181.546M255.941,177.551L255.464,177.911L254.987,177.668L254.987,177.435L255.23,177.075L255.707,177.075L255.824,176.832L256.301,177.075L256.418,177.192L255.941,177.551M237.518,168.491L238.175,168.608L238.652,168.608L239.489,168.725L239.525,168.734L241.712,169.193L241.748,169.202L242.999,169.544L243.062,169.562L244.259,169.804L244.304,169.813L245.447,170.155L245.447,170.038L245.69,169.678L245.564,169.085L245.924,168.374L246.284,168.248L246.707,168.356L246.761,168.374L247.121,168.968L248.309,168.968L248.876,169.076L248.903,169.085L249.578,169.535L249.623,169.562L250.577,170.155L250.622,170.191L251.477,170.83L251.531,170.875L252.422,170.542L252.485,170.515L252.602,170.398L252.845,169.562L254.87,169.328L255.104,169.202L255.14,169.184L255.707,168.851L256.058,169.328L256.184,169.328L256.301,169.085L257.138,169.085L258.569,169.921L258.686,169.804L258.803,169.678L258.812,169.687L259.397,169.804L259.757,170.281L260.306,170.164L260.351,170.155L261.071,170.398L261.782,170.281L262.385,170.155L262.619,170.281L262.502,170.632L261.782,170.515L261.305,170.632L260.828,171.469L260.234,171.829L259.64,172.306L259.397,172.666L259.163,173.853L258.569,174.213L258.092,174.573L258.209,175.167L258.092,175.878L257.732,176.004L257.138,175.761L256.895,175.167L256.184,175.401L255.707,175.878L255.464,175.878L254.87,175.05L254.033,174.573L253.835,174.861L253.799,174.924L253.799,175.167L255.464,176.481L255.581,176.598L255.59,176.598L255.617,176.616L255.635,176.616L255.662,176.634L255.698,176.652L255.707,176.652L255.734,176.661L255.761,176.679L255.797,176.688L255.806,176.697L255.851,176.715L255.878,176.724L255.887,176.733L255.914,176.733L255.923,176.742L255.932,176.742L255.95,176.751L255.968,176.751L255.977,176.76L255.995,176.76L256.022,176.769L256.04,176.778L256.058,176.778L256.076,176.787L256.094,176.787L256.103,176.796L256.139,176.796L256.148,176.805L256.157,176.805L256.175,176.814L256.211,176.814L256.229,176.823L256.265,176.823L256.274,176.832L256.319,176.832L256.328,176.841L256.382,176.841L256.391,176.85L256.463,176.85L256.472,176.859L256.877,176.859L256.922,176.85L256.949,176.85L256.967,176.841L257.003,176.841L257.021,176.832L257.066,176.832L257.084,176.823L257.138,176.823L257.156,176.814L257.192,176.814L257.21,176.805L257.237,176.805L257.264,176.796L257.318,176.796L257.336,176.787L257.372,176.787L257.39,176.778L257.435,176.778L257.453,176.769L257.462,176.769L257.768,176.724L257.786,176.724L257.813,176.715L257.84,176.715L257.876,176.706L257.93,176.706L257.957,176.697L257.984,176.697L258.011,176.688L258.047,176.688L258.056,176.679L258.119,176.679L258.128,176.67L258.182,176.67L258.182,176.652L258.191,176.661L258.227,176.661L258.227,176.67L258.2,176.67L258.191,176.679L258.191,176.688L258.182,176.688L258.182,176.679L257.759,176.742L257.561,176.769L257.462,176.787L257.255,176.814L257.237,176.814L257.219,176.823L257.156,176.832L257.048,176.85L256.931,176.868L256.859,176.868L256.76,176.877L256.544,176.877L256.517,176.868L256.436,176.868L256.418,176.859L256.382,176.859L256.346,176.85L256.301,176.85L256.283,176.841L256.256,176.841L256.247,176.832L256.22,176.832L256.202,176.823L256.184,176.823L256.166,176.814L256.13,176.814L256.121,176.805L256.094,176.805L256.094,176.796L256.058,176.796L255.986,176.769L255.887,176.742L255.851,176.724L255.797,176.706L255.752,176.688L255.725,176.679L255.662,176.652L255.599,176.616L255.563,176.598L253.673,176.598L253.673,176.958L253.916,177.192L254.987,177.911L255.347,178.028L255.824,177.911L255.932,177.794L255.941,177.785L256.418,177.551L257.489,178.388L257.543,178.442L258.326,179.342L258.092,179.693L258.056,179.738L257.732,180.17L256.895,180.17L256.067,179.468L256.058,179.459L255.662,179.054L255.149,178.541L255.104,178.505L254.735,178.352L254.51,178.262L254.15,178.622L253.916,179.207L253.916,179.216L253.844,179.315L253.466,179.891L253.439,179.936L253.196,180.296L252.962,180.53L252.368,180.773L252.332,180.782L251.891,181.007L251.171,180.773L250.694,181.25L249.983,181.6L249.983,182.914L249.857,183.157L249.623,183.157L249.029,182.797L248.597,182.689L248.552,182.68L245.33,182.68L245.33,181.6L244.376,181.6L244.016,181.726L244.016,181.96L242.225,182.203L242.108,181.96L242.081,181.942L240.704,180.908L240.677,180.89L240.56,180.89L240.083,180.053L238.652,178.982L238.625,178.973L238.193,178.748L238.175,178.739L237.221,178.028L237.329,177.012L237.338,176.958L237.455,175.878L237.338,175.167L237.419,174.924L237.455,174.807L237.455,172.666L237.428,172.657L235.07,172.189L235.907,168.131L236.825,168.365L236.861,168.374L237.518,168.491" style="fill:none;fill-rule:nonzero;stroke:white;stroke-width:0.12px;"/>
                <path id="path57" d="M249.083,174.888L249.407,175.032L249.83,175.023L249.893,175.482L250.847,175.671L251.405,175.932L251.567,176.13L251.612,176.364L251.513,176.814L251.126,176.823L250.739,177.183L250.415,177.381L249.596,177.596L249.299,177.776L248.813,177.938L248.174,177.884L247.895,177.632L247.463,177.39L247.247,177.084L247.238,177.003L247.103,176.76L247.04,176.526L246.86,176.076L246.932,175.878L247.283,174.753L247.472,174.447L247.544,174.285L247.697,173.898L248.228,173.889L248.597,173.844L248.705,174.555L248.84,174.681L249.083,174.888" style="fill:none;fill-rule:nonzero;stroke:white;stroke-width:0.12px;"/>
                <g id="path61" transform="matrix(0.0485596,0,0,0.0485596,233.492,164.304)">
                    <path d="M292.344,167.75L278.25,180.906L270.844,178.313L261.219,184.625L259.719,185.344L252.5,179.063L247.125,178.125L247.125,187.031L250.281,189.438L250.281,196.094L226.188,195.906L226.375,206.125L225.625,206.125L216.531,206.281L212.094,229.844L209.688,238.531L221.375,241.5L221.188,249.094L231.75,248L235.063,260.031L234.344,265.406L232.125,279.844L242.313,280.594L240.813,284.5L241.938,284.875L259.906,277.625L260.094,278.188L287.719,269.469L283.25,263.188L283.063,261.5L280.313,256.5L279,251.688L275.281,242.438L276.781,238.344L284,215.188L287.906,208.906L289.375,205.563L292.531,197.594L303.469,197.406L311.063,196.469L306.25,184.063L292.344,167.75Z" style="fill:none;fill-rule:nonzero;stroke:white;stroke-width:2.5px;"/>
                </g>
                <g id="path65" transform="matrix(0.0485596,0,0,0.0485596,233.492,164.304)">
                    <clipPath id="_clip1">
                        <rect x="0" y="0" width="500" height="460"/>
                    </clipPath>
                    <g clip-path="url(#_clip1)">
                        <path d="M405.781,215.375L370.75,215.563L351.281,218.719L336.469,220.75L337.75,230.188L357.406,234.094L368.875,239.469L372.219,243.531L373.156,248.344L371.125,257.625L363.156,257.813L355.188,265.219L348.5,269.281L331.625,273.75L325.531,277.438L327.563,285.781L332,293.375L335.906,302.656L338.125,307.656L338.875,309.875L339.594,312.844L341.281,328.781L330.531,335.25L325.875,346.75L316.063,348.219L314.219,350.813L316.063,356.563L308.844,373.625L311.063,378.625L319.969,380.844L332.188,388.25L337,388.25L339.594,383.25L339.594,356.188L354.25,348.969L364.063,339.156L378.906,343.969L387.969,339.344L388.719,339.156L400.938,334.156L405.219,329.875L405.781,329.344L410.781,321.906L411.344,321L419.125,309.125L420.594,307.094L420.594,306.906L425.406,294.875L432.844,287.469L437.469,289.313L445.063,292.469L446,293.188L456.563,303.75L464.719,312.094L464.906,312.281L481.938,326.75L499.188,326.75L505.844,317.844L506.594,316.906L511.406,309.688L495.281,291.156L494.188,290.063L472.125,272.813L462.313,277.625L462.125,277.813L459.875,280.219L450.063,282.625L442.656,280.219L420.594,265.406L415.594,260.594L415.594,253.188L454.5,253.188L455.25,253.531L456.563,254.281L457.844,254.844L458.406,255.031L459.344,255.406L460.438,255.781L461.188,256.125L463.219,256.688L464.719,257.25L465.438,257.25L465.438,257.438L466,257.438L466.188,257.625L466.938,257.625L467.313,257.813L467.688,257.813L468.031,258L468.594,258L468.781,258.188L469.344,258.188L469.719,258.375L470.625,258.375L471.375,258.563L472.125,258.563L472.5,258.719L474.156,258.719L474.719,258.906L479.156,258.906L481.219,258.719L482.688,258.719L485.094,258.375L487.313,258L488.625,257.813L489,257.625L489.344,257.625L493.625,257.063L495.656,256.688L499.75,256.125L508.438,254.844L508.438,255.031L508.625,255.031L508.625,254.844L508.813,254.656L509.375,254.656L509.375,254.469L508.625,254.469L508.438,254.281L508.438,254.656L507.344,254.656L507.156,254.844L505.844,254.844L505.656,255.031L504.938,255.031L504.375,255.219L503.813,255.219L503.25,255.406L502.156,255.406L501.406,255.594L500.844,255.594L500.281,255.781L499.938,255.781L493.625,256.688L493.438,256.688L493.063,256.875L492.125,256.875L491.781,257.063L491.031,257.063L490.656,257.25L489.531,257.25L489,257.438L488.438,257.438L488.063,257.625L487.313,257.625L486.938,257.813L485.844,257.813L485.469,258L484.531,258L484.156,258.188L483.438,258.188L483.063,258.375L482.5,258.375L481.563,258.563L473.219,258.563L473.063,258.375L471.563,258.375L471.375,258.188L470.281,258.188L470.094,258L469.156,258L468.969,257.813L468.219,257.813L467.875,257.625L467.125,257.625L466.75,257.438L466.563,257.438L466.375,257.25L465.625,257.25L465.438,257.063L465.094,257.063L464.719,256.875L464.344,256.875L463.969,256.688L463.406,256.5L463.031,256.5L462.844,256.313L462.5,256.313L462.125,256.125L461.938,256.125L461.75,255.969L461.188,255.969L461,255.781L460.438,255.594L459.531,255.219L459.344,255.031L458.594,254.844L458.031,254.469L457.469,254.281L457.281,254.281L456.938,254.094L456.563,253.906L456,253.531L455.625,253.531L455.063,253.188L454.875,253.188L452.469,250.781L418.188,223.719L418.188,218.719L418.938,217.406L418,217.031L405.781,215.375ZM459.875,258L457.469,263L447.656,263L442.656,270.406L442.656,275.219L452.469,280.219L472.125,265.406L469.719,263L459.875,258Z" style="fill:none;fill-rule:nonzero;stroke:white;stroke-width:2.5px;"/>
                    </g>
                </g>
                <path id="path71" d="M246.761,168.374L247.121,168.968L248.309,168.968L248.876,169.076L248.903,169.085L249.578,169.535L249.623,169.562L250.577,170.155L250.622,170.191L251.477,170.83L251.531,170.875L252.422,170.542L252.485,170.515L252.602,170.398L252.845,169.562L254.87,169.328L255.104,169.202L255.14,169.184L255.707,168.851L256.058,169.328L256.184,169.328L256.301,169.085L257.138,169.085L258.569,169.921L258.686,169.804L258.803,169.678L258.812,169.687L259.397,169.804L259.757,170.281L260.306,170.164L260.351,170.155L261.071,170.398L261.782,170.281L262.385,170.155L262.619,170.281L262.502,170.632L261.782,170.515L261.305,170.632L260.828,171.469L260.234,171.829L259.64,172.306L259.397,172.666L259.163,173.853L258.569,174.213L258.092,174.573L258.209,175.167L258.092,175.878L257.732,176.004L257.138,175.761L256.895,175.167L256.184,175.401L255.707,175.878L255.464,175.878L254.87,175.05L254.033,174.573L253.835,174.861L253.79,174.843L253.196,174.762L251.495,174.771L250.55,174.924L249.83,175.023L249.407,175.032L249.083,174.888L248.84,174.681L248.705,174.555L248.597,173.844L248.363,173.242L247.688,172.45L247.841,172.27L246.086,170.371L245.447,170.038L245.69,169.678L245.564,169.085L245.924,168.374L246.284,168.248L246.707,168.356L246.761,168.374" style="fill:none;fill-rule:nonzero;stroke:white;stroke-width:0.12px;"/>
                <g id="path73" transform="matrix(0.0485596,0,0,0.0485596,233.492,164.304)">
                    <path d="M100.156,193.875L98.844,196.094L94.406,197.219L81.625,197.031L81.625,216.313L80.875,218.719L79.219,223.719L81.625,238.344L79.219,260.594L79.031,261.688L76.781,282.625L96.438,297.281L96.813,297.469L105.719,302.094L106.25,302.281L135.719,324.313L145.563,341.563L147.969,341.563L148.531,341.938L176.875,363.25L182.625,354.906L188,353.063L219.5,349.719L225.25,345.438L228.781,339.344L228.594,335.438L228.594,334.531L223.219,333.781L221,331.75L219.5,312.844L226.563,311.906L224.875,287.094L231.938,286.906L232.125,279.844L234.344,265.406L235.063,260.031L231.75,248L221.188,249.094L221.375,241.5L209.688,238.531L212.094,229.844L216.531,206.281L203.75,206.656L203.938,199.625L182.625,198.875L182.625,194.438L100.156,193.875Z" style="fill:none;fill-rule:nonzero;stroke:white;stroke-width:2.5px;"/>
                </g>
                <path id="path79" d="M255.23,181.483L255.347,181.6L255.824,181.6L256.184,181.96L256.778,183.274L256.778,183.868L256.823,183.823L258.326,182.437L258.443,182.554L258.776,185.11L258.803,185.298L258.515,185.244L258.209,185.182L257.966,185.182L257.66,185.487L257.615,185.541L257.255,185.892L257.138,186.252L257.138,186.612L256.778,187.089L255.86,186.981L255.707,186.972L254.753,187.683L254.708,187.737L254.51,188.043L254.393,188.403L254.321,188.412L253.799,188.52L253.322,188.52L253.205,188.295L253.196,188.277L251.288,184.705L251.288,184.462L251.648,184.111L252.008,183.634L252.197,183.157L252.242,183.031L252.125,182.797L251.891,182.554L252.008,182.437L252.485,182.077L252.62,182.014L252.719,181.96L253.196,182.68L253.502,182.473L253.556,182.437L254.375,181.969L254.393,181.96L255.185,181.51L255.23,181.483" style="fill:none;fill-rule:nonzero;stroke:white;stroke-width:0.12px;"/>
                <g id="path83" transform="matrix(0.0485596,0,0,0.0485596,233.492,164.304)">
                    <path d="M287.719,269.469L260.094,278.188L259.906,277.625L241.938,284.875L240.813,284.5L242.313,280.594L232.125,279.844L231.938,286.906L224.875,287.094L226.563,311.906L219.5,312.844L221,331.75L223.219,333.781L228.594,334.531L228.594,335.438L228.781,339.344L225.25,345.438L219.5,349.719L188,353.063L182.625,354.906L176.875,363.25L177.438,363.594L179.844,368.625L216.719,363.594L216.719,358.781L224.125,356.188L243.781,356.188L243.781,378.438L310.125,378.438L311.063,378.625L308.844,373.625L316.063,356.563L314.219,350.813L316.063,348.219L325.875,346.75L330.531,335.25L341.281,328.781L339.594,312.844L338.875,309.875L338.125,307.656L335.906,302.656L332,293.375L327.563,285.781L325.531,277.438L315.5,280.781L302.344,279.688L296.594,274.469L287.719,269.469Z" style="fill:none;fill-rule:nonzero;stroke:white;stroke-width:2.5px;"/>
                </g>
            </g>
        </g>
    </g>
    <g transform="matrix(1,0,0,1,79.3913,112.931)">
        <text x="0px" y="0px" style="font-family:'WindsorEF-Bold', 'WindsorEF';font-weight:700;font-size:12px;fill:rgb(248,248,248);">W<tspan x="11.616px " y="0px ">e</tspan>stpoor<tspan x="53.256px " y="0px ">t</tspan></text>
    </g>
    <g transform="matrix(1,0,0,1,318.638,135.998)">
        <text x="0px" y="0px" style="font-family:'WindsorEF-Bold', 'WindsorEF';font-weight:700;font-size:12px;fill:rgb(248,248,248);">N<tspan x="9.048px " y="0px ">o</tspan>or<tspan x="27.396px " y="0px ">d</tspan></text>
    </g>
    <g transform="matrix(1,0,0,1,75.0998,200.906)">
        <text x="0px" y="0px" style="font-family:'WindsorEF-Bold', 'WindsorEF';font-weight:700;font-size:12px;fill:rgb(248,248,248);">Nieuw-<tspan x="37.464px 49.08px " y="0px 0px ">We</tspan>st</text>
    </g>
    <g transform="matrix(1,0,0,1,181.849,185.349)">
        <text x="0px" y="0px" style="font-family:'WindsorEF-Bold', 'WindsorEF';font-weight:700;font-size:12px;fill:rgb(248,248,248);">W<tspan x="11.616px " y="0px ">e</tspan>st</text>
    </g>
    <g transform="matrix(1,0,0,1,204.915,256.158)">
        <text x="0px" y="0px" style="font-family:'WindsorEF-Bold', 'WindsorEF';font-weight:700;font-size:12px;fill:rgb(248,248,248);">Zuid</text>
    </g>
    <g transform="matrix(1,0,0,1,225.836,194.468)">
        <text x="0px" y="0px" style="font-family:'WindsorEF-Bold', 'WindsorEF';font-weight:700;font-size:12px;fill:rgb(248,248,248);">Centrum</text>
    </g>
    <g transform="matrix(1,0,0,1,289.134,236.846)">
        <text x="0px" y="0px" style="font-family:'WindsorEF-Bold', 'WindsorEF';font-weight:700;font-size:12px;fill:rgb(248,248,248);">Oost</text>
    </g>
    <g transform="matrix(1,0,0,1,310.591,341.986)">
        <text x="0px" y="0px" style="font-family:'WindsorEF-Bold', 'WindsorEF';font-weight:700;font-size:12px;fill:rgb(248,248,248);">Zuidoost</text>
    </g>
</svg>
