<?xml version="1.0" encoding="UTF-8" standalone="no"?>
<!DOCTYPE svg PUBLIC "-//W3C//DTD SVG 1.1//EN" "http://www.w3.org/Graphics/SVG/1.1/DTD/svg11.dtd">
<svg width="100%" height="100%" viewBox="0 0 46 46" version="1.1" xmlns="http://www.w3.org/2000/svg" xmlns:xlink="http://www.w3.org/1999/xlink" xml:space="preserve" xmlns:serif="http://www.serif.com/" style="fill-rule:evenodd;clip-rule:evenodd;stroke-linecap:round;stroke-linejoin:round;stroke-miterlimit:1.5;">
    <g transform="matrix(0.74185,0,0,0.74185,-120.115,-449.225)">
        <g transform="matrix(0.649788,0,0,1.36339,120.898,558.45)">
            <text x="62.25px" y="66.739px" style="font-family:'WindsorEF-Bold', 'WindsorEF';font-weight:700;font-size:37.844px;fill:rgb(180,70,79);">I</text>
        </g>
        <g>
            <g transform="matrix(1,0,0,1,-605.14,0)">
                <path d="M770.864,617.392L788.829,625.649" style="fill:none;stroke:rgb(180,70,79);stroke-width:4px;"/>
            </g>
            <g transform="matrix(1,0,0,1,-605.14,27.9212)">
                <path d="M770.864,617.392L788.829,625.649" style="fill:none;stroke:rgb(180,70,79);stroke-width:4px;"/>
            </g>
        </g>
        <g transform="matrix(1,0,0,1,35.9292,0)">
            <g transform="matrix(1,0,0,1,-605.14,0)">
                <path d="M770.864,617.392L788.829,625.649" style="fill:none;stroke:rgb(180,70,79);stroke-width:4px;"/>
            </g>
            <g transform="matrix(1,0,0,1,-605.14,27.9212)">
                <path d="M770.864,617.392L788.829,625.649" style="fill:none;stroke:rgb(180,70,79);stroke-width:4px;"/>
            </g>
        </g>
        <g transform="matrix(-1,0,0,1,367.377,0)">
            <g transform="matrix(1,0,0,1,-605.14,0)">
                <path d="M770.864,617.392L788.829,625.649" style="fill:none;stroke:rgb(180,70,79);stroke-width:4px;"/>
            </g>
            <g transform="matrix(1,0,0,1,-605.14,27.9212)">
                <path d="M770.864,617.392L788.829,625.649" style="fill:none;stroke:rgb(180,70,79);stroke-width:4px;"/>
            </g>
        </g>
        <g transform="matrix(0.649788,0,0,1.36339,138.862,566.543)">
            <text x="62.25px" y="66.739px" style="font-family:'WindsorEF-Bold', 'WindsorEF';font-weight:700;font-size:37.844px;fill:rgb(180,70,79);">I</text>
        </g>
        <g transform="matrix(0.649788,0,0,1.36339,156.827,558.45)">
            <text x="62.25px" y="66.739px" style="font-family:'WindsorEF-Bold', 'WindsorEF';font-weight:700;font-size:37.844px;fill:rgb(180,70,79);">I</text>
        </g>
        <g transform="matrix(0.649788,0,0,1.36339,174.791,566.543)">
            <text x="62.25px" y="66.739px" style="font-family:'WindsorEF-Bold', 'WindsorEF';font-weight:700;font-size:37.844px;fill:rgb(180,70,79);">I</text>
        </g>
    </g>
</svg>
