<?xml version="1.0" encoding="UTF-8" standalone="no"?><!DOCTYPE svg PUBLIC "-//W3C//DTD SVG 1.1//EN" "http://www.w3.org/Graphics/SVG/1.1/DTD/svg11.dtd"><svg width="100%" height="100%" viewBox="0 0 1024 1024" version="1.1" xmlns="http://www.w3.org/2000/svg" xmlns:xlink="http://www.w3.org/1999/xlink" xml:space="preserve" xmlns:serif="http://www.serif.com/" style="fill-rule:evenodd;clip-rule:evenodd;stroke-linejoin:round;stroke-miterlimit:2;"><circle cx="512" cy="512" r="512" style="fill:#cbcecb;"/><clipPath id="_clip1"><circle cx="512" cy="512" r="512"/></clipPath><g clip-path="url(#_clip1)"><g><g transform="matrix(0.515776,-0.796999,0.893351,0.460147,-188.015,717.283)"><text x="554.016px" y="510.755px" style="font-family:'WindsorEF-Bold', 'WindsorEF';font-weight:700;font-size:770.346px;fill:#2f4858;">o</text></g></g><g><path d="M568.702,512.283c-185.744,0 -325.059,89.321 -383.388,199.923c-35.614,66.634 -38.867,318.951 -38.867,388.414c0,17.741 92.887,42.544 130.669,41.12c48.598,-1.405 97.195,-2.117 145.793,-2.117l218.133,0c19.434,0 125.39,-3.11 140.514,3.26c24.827,10.64 95.997,-10.847 95.997,-29.974l-0,-281.615c-0,-45.372 -3.225,-114.124 -17.265,-158.091c-8.646,-27.651 -27.024,-53.165 -50.766,-76.563c-57.244,-55.301 -138.231,-84.357 -240.82,-84.357Zm-32.417,140.369c142.568,0 238.679,49.625 238.679,146.739c0,44.679 -35.642,42.543 -93.942,42.543c-56.16,0 -112.32,0.712 -167.395,0.712c-57.245,0 -114.489,0 -171.705,-0.712c-51.851,-0.712 -89.633,2.829 -89.633,-37.579c0,-98.537 149.018,-151.703 283.996,-151.703Z" style="fill:#2f4858;fill-rule:nonzero;"/></g><ellipse cx="512" cy="265.146" rx="158.025" ry="144.152" style="fill:#2f4858;"/><ellipse cx="512" cy="912.622" rx="322.461" ry="289.683" style="fill:#2f4858;"/></g></svg>